<svg width="24" height="24" viewBox="0 0 24 24" fill="none" xmlns="http://www.w3.org/2000/svg">
<path d="M19 10H20C20.2652 10 20.5196 10.1054 20.7071 10.2929C20.8946 10.4804 21 10.7348 21 11V20C21 20.2652 20.8946 20.5196 20.7071 20.7071C20.5196 20.8946 20.2652 21 20 21H4C3.73478 21 3.48043 20.8946 3.29289 20.7071C3.10536 20.5196 3 20.2652 3 20V11C3 10.7348 3.10536 10.4804 3.29289 10.2929C3.48043 10.1054 3.73478 10 4 10H5" stroke="#4478BB" stroke-width="2" stroke-linecap="round" stroke-linejoin="round"/>
<path d="M15 14L12 17L9 14" stroke="#4478BB" stroke-width="2" stroke-linecap="round" stroke-linejoin="round"/>
<path d="M15 9L12 12L9 9" stroke="#4478BB" stroke-width="2" stroke-linecap="round" stroke-linejoin="round"/>
<path d="M12 12V3" stroke="#4478BB" stroke-width="2" stroke-linecap="round" stroke-linejoin="round"/>
</svg>
