<svg width="30" height="30" viewBox="0 0 30 30" fill="none" xmlns="http://www.w3.org/2000/svg">
<path d="M27.7532 5.17245H2.24678C1.00588 5.17245 0 6.17833 0 7.41923V22.5809C0 23.8218 1.00588 24.8277 2.24678 24.8277H27.7532C28.9941 24.8277 30 23.8218 30 22.5809V7.41923C30 6.17833 28.9941 5.17245 27.7532 5.17245Z" fill="#FF4B55"/>
<path d="M4.9809 8.24596L5.47402 9.72451L7.03261 9.73658C7.23441 9.7381 7.31808 9.99568 7.15572 10.1155L5.90193 11.0413L6.37203 12.5274C6.43285 12.7198 6.21383 12.8789 6.04965 12.7616L4.78168 11.8552L3.51371 12.7615C3.34953 12.8789 3.13051 12.7197 3.19133 12.5273L3.66142 11.0413L2.40763 10.1155C2.24527 9.99562 2.32894 9.7381 2.53074 9.73658L4.08933 9.72451L4.58246 8.24596C4.64633 8.05453 4.91709 8.05453 4.9809 8.24596Z" fill="#FFE15A"/>
<path d="M10.6406 8.61036L10.9942 9.09247L11.5648 8.91399C11.6387 8.8909 11.6995 8.97516 11.6543 9.03791L11.3049 9.52313L11.651 10.0107C11.6958 10.0738 11.6344 10.1576 11.5607 10.134L10.9913 9.95174L10.6345 10.4316C10.5883 10.4937 10.4896 10.4612 10.4893 10.3839L10.4867 9.78592L9.92006 9.59485C9.8467 9.57006 9.84705 9.46623 9.92058 9.44198L10.4884 9.25471L10.495 8.65682C10.4959 8.57965 10.5948 8.54795 10.6406 8.61036Z" fill="#FFE15A"/>
<path d="M8.4877 7.17318L9.08208 7.23775L9.33567 6.69628C9.36854 6.6262 9.47173 6.63821 9.48749 6.71397L9.60972 7.29921L10.203 7.37304C10.2799 7.38259 10.3003 7.48443 10.2331 7.52292L9.71425 7.81999L9.82739 8.40711C9.84204 8.48316 9.75151 8.53402 9.69415 8.48205L9.25124 8.08039L8.72788 8.36937C8.66015 8.40681 8.58368 8.33638 8.61544 8.26578L8.86054 7.72038L8.4239 7.31187C8.36747 7.25925 8.41077 7.16486 8.4877 7.17318Z" fill="#FFE15A"/>
<path d="M9.42743 12.9675L9.07388 13.4498L8.50324 13.2713C8.42935 13.2482 8.36859 13.3324 8.41382 13.3952L8.76316 13.8804L8.4171 14.368C8.37228 14.4311 8.43363 14.5149 8.50734 14.4913L9.07675 14.309L9.43353 14.7889C9.4797 14.851 9.57843 14.8185 9.57872 14.7412L9.58136 14.1432L10.148 13.9521C10.2213 13.9273 10.221 13.8235 10.1474 13.7993L9.57966 13.612L9.57298 13.0141C9.57204 12.9368 9.4732 12.9051 9.42743 12.9675Z" fill="#FFE15A"/>
<path d="M11.5802 11.6172L10.9858 11.6818L10.7322 11.1403C10.6993 11.0703 10.5962 11.0823 10.5803 11.158L10.4581 11.7433L9.86475 11.8171C9.78793 11.8266 9.76748 11.9285 9.83469 11.967L10.3535 12.2641L10.2404 12.8512C10.2257 12.9272 10.3163 12.9781 10.3736 12.9261L10.8165 12.5244L11.3399 12.8134C11.4076 12.8509 11.4841 12.7804 11.4523 12.7098L11.2072 12.1644L11.6439 11.7559C11.7005 11.7033 11.6572 11.6089 11.5802 11.6172Z" fill="#FFE15A"/>
</svg>
