<svg width="60" height="30" viewBox="0 0 60 30" fill="none" xmlns="http://www.w3.org/2000/svg">
<path d="M29.9979 0C28.7151 0 27.4705 0.173205 26.2894 0.515174C21.3744 1.89193 17.5051 5.95115 16.1927 11.1073C15.8668 12.3464 15.7017 13.6521 15.7017 14.9978C15.7017 20.5448 18.5761 25.3945 22.8434 27.9837C21.6157 25.7765 20.9172 23.2095 20.9172 20.4737C20.9172 19.9319 20.9426 19.3945 21.0019 18.8705C21.7046 11.8712 27.0091 6.30644 33.6809 5.56921C34.1805 5.50703 34.6927 5.48038 35.2092 5.48038C37.8169 5.48038 40.2639 6.21317 42.3679 7.50111C39.9083 3.01554 35.2854 0 29.9979 0Z" fill="#045599"/>
<path d="M43.8072 11.1073C42.6768 15.5485 39.6457 19.1769 35.6875 20.9756C33.9433 21.775 32.0214 22.2147 29.9978 22.2147C26.5899 22.2147 23.4572 20.9623 21.0061 18.866C20.9468 19.3901 20.9214 19.9275 20.9214 20.4693C20.9214 23.205 21.6199 25.772 22.8476 27.9793C23.9186 28.6366 25.0701 29.1429 26.2936 29.4848C27.4747 29.8268 28.7193 30 30.002 30C37.9016 30 44.3025 23.2805 44.3025 14.9978C44.2982 13.6521 44.1331 12.3464 43.8072 11.1073Z" fill="#4478BB"/>
<path d="M43.8071 11.1073C42.6768 15.5485 39.6457 19.1769 35.6875 20.9756C36.4537 19.1458 36.8728 17.1207 36.8728 14.9978C36.8728 11.4227 35.679 8.14064 33.6851 5.56478C34.1846 5.5026 34.6968 5.47595 35.2133 5.47595C37.8211 5.47595 40.268 6.20874 42.372 7.49668C43.0028 8.61585 43.4854 9.82828 43.8071 11.1073Z" fill="#F48020"/>
<path d="M11.8493 15.0022C11.8493 11.3072 12.8568 7.85641 14.5925 4.93857C7.45925 8.77573 2.70091 13.9586 0 17.4449C1.70183 19.9141 4.66944 23.547 9.30502 26.3716C12.4462 28.2857 15.6763 29.4049 18.8217 29.9956C14.5798 26.5093 11.8493 21.091 11.8493 15.0022Z" fill="#02519E"/>
<path d="M59.9999 12.5551C58.2981 10.0859 55.3305 6.453 50.6949 3.63286C47.5537 1.71873 44.3236 0.599554 41.1782 0.00888062C45.4201 3.49519 48.1506 8.91339 48.1506 15.0022C48.1506 18.6973 47.1431 22.148 45.4074 25.0659C52.5407 21.2287 57.299 16.0414 59.9999 12.5551Z" fill="#F48020"/>
</svg>
