<svg width="18" height="18" viewBox="0 0 18 18" fill="none" xmlns="http://www.w3.org/2000/svg">
<path d="M16.6519 3.10352H1.34807C0.603527 3.10352 0 3.70704 0 4.45158V13.5486C0 14.2931 0.603527 14.8966 1.34807 14.8966H16.6519C17.3964 14.8966 18 14.2931 18 13.5486V4.45158C18 3.70704 17.3965 3.10352 16.6519 3.10352Z" fill="#F5F5F5"/>
<path d="M0.0740967 4.01069H17.9258C17.7431 3.48275 17.2419 3.10352 16.6519 3.10352H1.34802C0.757956 3.10352 0.256804 3.48275 0.0740967 4.01069Z" fill="#FF4B55"/>
<path d="M18 6.73221H0V7.63934H18V6.73221Z" fill="#FF4B55"/>
<path d="M18 4.91772H0V5.82486H18V4.91772Z" fill="#FF4B55"/>
<path d="M0 9.14341C0 9.31479 0.138973 9.45376 0.310359 9.45376H18V8.5466H0V9.14341Z" fill="#FF4B55"/>
<path d="M18 12.1754H0V13.0826H18V12.1754Z" fill="#FF4B55"/>
<path d="M17.9258 13.9894H0.0740967C0.256804 14.5174 0.757991 14.8966 1.34802 14.8966H16.6519C17.2419 14.8966 17.7431 14.5174 17.9258 13.9894Z" fill="#FF4B55"/>
<path d="M18 10.3609H0V11.268H18V10.3609Z" fill="#FF4B55"/>
<path d="M0.310359 9.45365H8.06899C8.24038 9.45365 8.37935 9.31468 8.37935 9.14329V3.41384C8.37935 3.24242 8.24038 3.10349 8.06899 3.10349H1.34807C0.603527 3.10352 0 3.70705 0 4.45159V9.14329C0 9.31472 0.138973 9.45365 0.310359 9.45365Z" fill="#41479B"/>
<path d="M0.871517 3.81585L0.940212 4.02186L1.15737 4.02351C1.1855 4.02376 1.19713 4.05962 1.17453 4.07632L0.999837 4.20531L1.06537 4.41234C1.07388 4.43913 1.04333 4.46135 1.02044 4.44497L0.843779 4.31872L0.667119 4.445C0.644232 4.46138 0.613752 4.43917 0.622189 4.41238L0.68772 4.20534L0.513029 4.07635C0.490424 4.05962 0.50206 4.02376 0.530185 4.02355L0.747345 4.0219L0.81604 3.81588C0.8249 3.78916 0.862587 3.78916 0.871517 3.81585Z" fill="#F5F5F5"/>
<path d="M0.871517 4.89346L0.940212 5.09947L1.15737 5.10112C1.1855 5.10137 1.19713 5.13719 1.17453 5.15393L0.999837 5.28295L1.06537 5.48999C1.07388 5.51678 1.04333 5.539 1.02044 5.52261L0.843779 5.39637L0.667119 5.52265C0.644232 5.539 0.613752 5.51681 0.622189 5.49002L0.68772 5.28299L0.513029 5.15396C0.490424 5.13723 0.50206 5.10141 0.530185 5.10116L0.747345 5.09951L0.81604 4.89349C0.8249 4.86681 0.862587 4.86681 0.871517 4.89346Z" fill="#F5F5F5"/>
<path d="M0.871517 5.97115L0.940212 6.17717L1.15737 6.17882C1.1855 6.17906 1.19713 6.21489 1.17453 6.23162L0.999837 6.36065L1.06537 6.56768C1.07388 6.59447 1.04333 6.61669 1.02044 6.60031L0.843779 6.47406L0.667119 6.60034C0.644232 6.61669 0.613752 6.59454 0.622189 6.56772L0.68772 6.36068L0.513029 6.23166C0.490424 6.21492 0.50206 6.1791 0.530185 6.17885L0.747345 6.1772L0.81604 5.97118C0.8249 5.94447 0.862587 5.94447 0.871517 5.97115Z" fill="#F5F5F5"/>
<path d="M0.871517 7.04894L0.940212 7.25495L1.15737 7.25661C1.1855 7.25685 1.19713 7.29271 1.17453 7.30941L0.999837 7.43843L1.06537 7.64547C1.07388 7.67226 1.04333 7.69448 1.02044 7.67809L0.843779 7.55185L0.667119 7.67813C0.644232 7.69448 0.613752 7.67229 0.622189 7.64551L0.68772 7.43847L0.513029 7.30945C0.490424 7.29278 0.50206 7.25689 0.530185 7.25664L0.747345 7.25499L0.81604 7.04897C0.8249 7.02226 0.862587 7.02226 0.871517 7.04894Z" fill="#F5F5F5"/>
<path d="M0.871517 8.12661L0.940212 8.33263L1.15737 8.33428C1.1855 8.33452 1.19713 8.37035 1.17453 8.38708L0.999837 8.51611L1.06537 8.72314C1.07388 8.74993 1.04333 8.77215 1.02044 8.75577L0.843779 8.62952L0.667119 8.7558C0.644232 8.77215 0.613752 8.74997 0.622189 8.72318L0.68772 8.51614L0.513029 8.38712C0.490424 8.37038 0.50206 8.33456 0.530185 8.33431L0.747345 8.33266L0.81604 8.12665C0.8249 8.09996 0.862587 8.09996 0.871517 8.12661Z" fill="#F5F5F5"/>
<path d="M1.70794 4.34408L1.77664 4.5501L1.9938 4.55175C2.02192 4.552 2.03356 4.58786 2.01095 4.60456L1.83626 4.73358L1.90179 4.94062C1.9103 4.96741 1.87975 4.98963 1.85686 4.97324L1.6802 4.84696L1.50354 4.97324C1.48066 4.98959 1.45018 4.96741 1.45862 4.94062L1.52415 4.73358L1.34945 4.60456C1.32685 4.58782 1.33849 4.552 1.36661 4.55175L1.58377 4.5501L1.65247 4.34408C1.66133 4.31743 1.69905 4.31743 1.70794 4.34408Z" fill="#F5F5F5"/>
<path d="M1.70794 5.42175L1.77664 5.62776L1.9938 5.62941C2.02192 5.62966 2.03356 5.66552 2.01095 5.68222L1.83626 5.81124L1.90179 6.01828C1.9103 6.04507 1.87975 6.06729 1.85686 6.0509L1.6802 5.92462L1.50354 6.0509C1.48066 6.06725 1.45018 6.0451 1.45862 6.01828L1.52415 5.81124L1.34945 5.68222C1.32685 5.66556 1.33849 5.62966 1.36661 5.62941L1.58377 5.62776L1.65247 5.42175C1.66133 5.39506 1.69905 5.39506 1.70794 5.42175Z" fill="#F5F5F5"/>
<path d="M1.70794 6.49957L1.77664 6.70558L1.9938 6.70723C2.02192 6.70748 2.03356 6.7433 2.01095 6.76004L1.83626 6.88906L1.90179 7.0961C1.9103 7.12289 1.87975 7.1451 1.85686 7.12872L1.6802 7.00244L1.50354 7.12872C1.48066 7.14507 1.45018 7.12289 1.45862 7.0961L1.52415 6.88906L1.34945 6.76004C1.32685 6.7433 1.33849 6.70748 1.36661 6.70723L1.58377 6.70558L1.65247 6.49957C1.66133 6.47288 1.69905 6.47288 1.70794 6.49957Z" fill="#F5F5F5"/>
<path d="M1.70794 7.57721L1.77664 7.78322L1.9938 7.78487C2.02192 7.78512 2.03356 7.82094 2.01095 7.83768L1.83626 7.9667L1.90179 8.17374C1.9103 8.20053 1.87975 8.22275 1.85686 8.20636L1.6802 8.08008L1.50354 8.20636C1.48066 8.22275 1.45018 8.20053 1.45862 8.17374L1.52415 7.9667L1.34945 7.83768C1.32685 7.82094 1.33849 7.78512 1.36661 7.78487L1.58377 7.78322L1.65247 7.57721C1.66133 7.55056 1.69905 7.55056 1.70794 7.57721Z" fill="#F5F5F5"/>
<path d="M2.54449 3.81573L2.61319 4.02174L2.83035 4.0234C2.85847 4.02364 2.87011 4.0595 2.8475 4.0762L2.67281 4.20519L2.73834 4.41222C2.74685 4.43901 2.7163 4.46123 2.69341 4.44485L2.51675 4.31857L2.34009 4.44485C2.31721 4.46123 2.28673 4.43901 2.29516 4.41222L2.36069 4.20519L2.186 4.0762C2.1634 4.05947 2.17503 4.02361 2.20316 4.0234L2.42032 4.02174L2.48901 3.81573C2.49787 3.78904 2.5356 3.78904 2.54449 3.81573Z" fill="#F5F5F5"/>
<path d="M2.54449 4.8934L2.61319 5.09942L2.83035 5.10107C2.85847 5.10131 2.87011 5.13714 2.8475 5.15387L2.67281 5.2829L2.73834 5.48993C2.74685 5.51672 2.7163 5.53894 2.69341 5.52256L2.51675 5.39627L2.34009 5.52256C2.31721 5.5389 2.28673 5.51672 2.29516 5.48993L2.36069 5.2829L2.186 5.15387C2.1634 5.13714 2.17503 5.10131 2.20316 5.10107L2.42032 5.09942L2.48901 4.8934C2.49787 4.86675 2.5356 4.86675 2.54449 4.8934Z" fill="#F5F5F5"/>
<path d="M2.54449 5.97106L2.61319 6.17708L2.83035 6.17873C2.85847 6.17898 2.87011 6.2148 2.8475 6.23154L2.67281 6.36056L2.73834 6.56759C2.74685 6.59438 2.7163 6.6166 2.69341 6.60022L2.51675 6.47394L2.34009 6.60022C2.31721 6.61657 2.28673 6.59442 2.29516 6.56759L2.36069 6.36056L2.186 6.23154C2.1634 6.2148 2.17503 6.17898 2.20316 6.17873L2.42032 6.17708L2.48901 5.97106C2.49787 5.94438 2.5356 5.94438 2.54449 5.97106Z" fill="#F5F5F5"/>
<path d="M2.54449 7.04888L2.61319 7.2549L2.83035 7.25655C2.85847 7.2568 2.87011 7.29266 2.8475 7.30935L2.67281 7.43838L2.73834 7.64541C2.74685 7.6722 2.7163 7.69442 2.69341 7.67804L2.51675 7.55176L2.34009 7.67804C2.31721 7.69439 2.28673 7.6722 2.29516 7.64541L2.36069 7.43838L2.186 7.30935C2.1634 7.29269 2.17503 7.2568 2.20316 7.25655L2.42032 7.2549L2.48901 7.04888C2.49787 7.0222 2.5356 7.0222 2.54449 7.04888Z" fill="#F5F5F5"/>
<path d="M2.54449 8.12652L2.61319 8.33254L2.83035 8.33419C2.85847 8.33444 2.87011 8.37026 2.8475 8.387L2.67281 8.51602L2.73834 8.72305C2.74685 8.74984 2.7163 8.77206 2.69341 8.75568L2.51675 8.6294L2.34009 8.75568C2.31721 8.77203 2.28673 8.74984 2.29516 8.72305L2.36069 8.51602L2.186 8.387C2.1634 8.37026 2.17503 8.33444 2.20316 8.33419L2.42032 8.33254L2.48901 8.12652C2.49787 8.09987 2.5356 8.09987 2.54449 8.12652Z" fill="#F5F5F5"/>
<path d="M3.38092 4.34408L3.44961 4.5501L3.66677 4.55175C3.6949 4.552 3.70653 4.58786 3.68393 4.60456L3.50924 4.73358L3.57477 4.94062C3.58328 4.96741 3.55273 4.98963 3.52984 4.97324L3.35318 4.84696L3.17652 4.97324C3.15363 4.98959 3.12315 4.96741 3.13159 4.94062L3.19712 4.73358L3.02243 4.60456C2.99982 4.58782 3.01146 4.552 3.03958 4.55175L3.25675 4.5501L3.32544 4.34408C3.33426 4.31743 3.37202 4.31743 3.38092 4.34408Z" fill="#F5F5F5"/>
<path d="M3.38092 5.42175L3.44961 5.62776L3.66677 5.62941C3.6949 5.62966 3.70653 5.66552 3.68393 5.68222L3.50924 5.81124L3.57477 6.01828C3.58328 6.04507 3.55273 6.06729 3.52984 6.0509L3.35318 5.92462L3.17652 6.0509C3.15363 6.06725 3.12315 6.0451 3.13159 6.01828L3.19712 5.81124L3.02243 5.68222C2.99982 5.66556 3.01146 5.62966 3.03958 5.62941L3.25675 5.62776L3.32544 5.42175C3.33426 5.39506 3.37202 5.39506 3.38092 5.42175Z" fill="#F5F5F5"/>
<path d="M3.38092 6.49957L3.44961 6.70558L3.66677 6.70723C3.6949 6.70748 3.70653 6.7433 3.68393 6.76004L3.50924 6.88906L3.57477 7.0961C3.58328 7.12289 3.55273 7.1451 3.52984 7.12872L3.35318 7.00244L3.17652 7.12872C3.15363 7.14507 3.12315 7.12289 3.13159 7.0961L3.19712 6.88906L3.02243 6.76004C2.99982 6.7433 3.01146 6.70748 3.03958 6.70723L3.25675 6.70558L3.32544 6.49957C3.33426 6.47288 3.37202 6.47288 3.38092 6.49957Z" fill="#F5F5F5"/>
<path d="M3.38092 7.57721L3.44961 7.78322L3.66677 7.78487C3.6949 7.78512 3.70653 7.82094 3.68393 7.83768L3.50924 7.9667L3.57477 8.17374C3.58328 8.20053 3.55273 8.22275 3.52984 8.20636L3.35318 8.08008L3.17652 8.20636C3.15363 8.22275 3.12315 8.20053 3.13159 8.17374L3.19712 7.9667L3.02243 7.83768C2.99982 7.82094 3.01146 7.78512 3.03958 7.78487L3.25675 7.78322L3.32544 7.57721C3.33426 7.55056 3.37202 7.55056 3.38092 7.57721Z" fill="#F5F5F5"/>
<path d="M4.2175 3.81582L4.2862 4.02183L4.50336 4.02348C4.53148 4.02373 4.54312 4.05959 4.52051 4.07629L4.34582 4.20528L4.41135 4.41231C4.41986 4.4391 4.38931 4.46132 4.36642 4.44494L4.18973 4.31869L4.01307 4.44497C3.99018 4.46135 3.9597 4.43914 3.96814 4.41235L4.03367 4.20531L3.85898 4.07632C3.83637 4.05959 3.84801 4.02373 3.87613 4.02352L4.09329 4.02187L4.16199 3.81585C4.17088 3.78913 4.20861 3.78913 4.2175 3.81582Z" fill="#F5F5F5"/>
<path d="M4.2175 4.8934L4.2862 5.09942L4.50336 5.10107C4.53148 5.10131 4.54312 5.13714 4.52051 5.15387L4.34582 5.2829L4.41135 5.48993C4.41986 5.51672 4.38931 5.53894 4.36642 5.52256L4.18973 5.39627L4.01307 5.52256C3.99018 5.5389 3.9597 5.51672 3.96814 5.48993L4.03367 5.2829L3.85898 5.15387C3.83637 5.13714 3.84801 5.10131 3.87613 5.10107L4.09329 5.09942L4.16199 4.8934C4.17088 4.86675 4.20861 4.86675 4.2175 4.8934Z" fill="#F5F5F5"/>
<path d="M4.2175 5.97101L4.2862 6.17702L4.50336 6.17867C4.53148 6.17892 4.54312 6.21474 4.52051 6.23148L4.34582 6.3605L4.41135 6.56754C4.41986 6.59433 4.38931 6.61655 4.36642 6.60016L4.18973 6.47385L4.01307 6.60013C3.99018 6.61647 3.9597 6.59429 3.96814 6.5675L4.03367 6.36047L3.85898 6.23144C3.83637 6.21471 3.84801 6.17888 3.87613 6.17864L4.09329 6.17699L4.16199 5.97097C4.17088 5.94432 4.20861 5.94432 4.2175 5.97101Z" fill="#F5F5F5"/>
<path d="M4.2175 7.04888L4.2862 7.2549L4.50336 7.25655C4.53148 7.2568 4.54312 7.29266 4.52051 7.30935L4.34582 7.43838L4.41135 7.64541C4.41986 7.6722 4.38931 7.69442 4.36642 7.67804L4.18973 7.55176L4.01307 7.67804C3.99018 7.69439 3.9597 7.6722 3.96814 7.64541L4.03367 7.43838L3.85898 7.30935C3.83637 7.29269 3.84801 7.2568 3.87613 7.25655L4.09329 7.2549L4.16199 7.04888C4.17088 7.0222 4.20861 7.0222 4.2175 7.04888Z" fill="#F5F5F5"/>
<path d="M4.2175 8.12652L4.2862 8.33254L4.50336 8.33419C4.53148 8.33444 4.54312 8.37026 4.52051 8.387L4.34582 8.51602L4.41135 8.72305C4.41986 8.74984 4.38931 8.77206 4.36642 8.75568L4.18973 8.6294L4.01307 8.75568C3.99018 8.77203 3.9597 8.74984 3.96814 8.72305L4.03367 8.51602L3.85898 8.387C3.83637 8.37026 3.84801 8.33444 3.87613 8.33419L4.09329 8.33254L4.16199 8.12652C4.17088 8.09987 4.20861 8.09987 4.2175 8.12652Z" fill="#F5F5F5"/>
<path d="M5.05389 4.34408L5.12258 4.5501L5.33974 4.55175C5.36787 4.552 5.3795 4.58786 5.3569 4.60456L5.18221 4.73358L5.24774 4.94062C5.25625 4.96741 5.2257 4.98963 5.20281 4.97324L5.02615 4.84696L4.84949 4.97324C4.8266 4.98959 4.79612 4.96741 4.80456 4.94062L4.87009 4.73358L4.6954 4.60456C4.6728 4.58782 4.68443 4.552 4.71256 4.55175L4.92972 4.5501L4.99841 4.34408C5.00731 4.31743 5.04499 4.31743 5.05389 4.34408Z" fill="#F5F5F5"/>
<path d="M5.05389 5.42175L5.12258 5.62776L5.33974 5.62941C5.36787 5.62966 5.3795 5.66552 5.3569 5.68222L5.18221 5.81124L5.24774 6.01828C5.25625 6.04507 5.2257 6.06729 5.20281 6.0509L5.02615 5.92462L4.84949 6.0509C4.8266 6.06725 4.79612 6.0451 4.80456 6.01828L4.87009 5.81124L4.6954 5.68222C4.6728 5.66556 4.68443 5.62966 4.71256 5.62941L4.92972 5.62776L4.99841 5.42175C5.00731 5.39506 5.04499 5.39506 5.05389 5.42175Z" fill="#F5F5F5"/>
<path d="M5.05389 6.49957L5.12258 6.70558L5.33974 6.70723C5.36787 6.70748 5.3795 6.7433 5.3569 6.76004L5.18221 6.88906L5.24774 7.0961C5.25625 7.12289 5.2257 7.1451 5.20281 7.12872L5.02615 7.00244L4.84949 7.12872C4.8266 7.14507 4.79612 7.12289 4.80456 7.0961L4.87009 6.88906L4.6954 6.76004C4.6728 6.7433 4.68443 6.70748 4.71256 6.70723L4.92972 6.70558L4.99841 6.49957C5.00731 6.47288 5.04499 6.47288 5.05389 6.49957Z" fill="#F5F5F5"/>
<path d="M5.05389 7.57721L5.12258 7.78322L5.33974 7.78487C5.36787 7.78512 5.3795 7.82094 5.3569 7.83768L5.18221 7.9667L5.24774 8.17374C5.25625 8.20053 5.2257 8.22275 5.20281 8.20636L5.02615 8.08008L4.84949 8.20636C4.8266 8.22275 4.79612 8.20053 4.80456 8.17374L4.87009 7.9667L4.6954 7.83768C4.6728 7.82094 4.68443 7.78512 4.71256 7.78487L4.92972 7.78322L4.99841 7.57721C5.00731 7.55056 5.04499 7.55056 5.05389 7.57721Z" fill="#F5F5F5"/>
<path d="M5.89044 3.81573L5.95913 4.02174L6.17629 4.0234C6.20441 4.02364 6.21605 4.0595 6.19345 4.0762L6.01876 4.20519L6.08429 4.41222C6.09279 4.43901 6.06224 4.46123 6.03936 4.44485L5.8627 4.31857L5.68604 4.44485C5.66315 4.46123 5.63267 4.43901 5.64111 4.41222L5.70664 4.20519L5.53195 4.0762C5.50934 4.05947 5.52098 4.02361 5.54911 4.0234L5.76626 4.02174L5.83496 3.81573C5.84378 3.78904 5.88154 3.78904 5.89044 3.81573Z" fill="#F5F5F5"/>
<path d="M5.89044 4.8934L5.95913 5.09942L6.17629 5.10107C6.20441 5.10131 6.21605 5.13714 6.19345 5.15387L6.01876 5.2829L6.08429 5.48993C6.09279 5.51672 6.06224 5.53894 6.03936 5.52256L5.8627 5.39627L5.68604 5.52256C5.66315 5.5389 5.63267 5.51672 5.64111 5.48993L5.70664 5.2829L5.53195 5.15387C5.50934 5.13714 5.52098 5.10131 5.54911 5.10107L5.76626 5.09942L5.83496 4.8934C5.84378 4.86675 5.88154 4.86675 5.89044 4.8934Z" fill="#F5F5F5"/>
<path d="M5.89044 5.97106L5.95913 6.17708L6.17629 6.17873C6.20441 6.17898 6.21605 6.2148 6.19345 6.23154L6.01876 6.36056L6.08429 6.56759C6.09279 6.59438 6.06224 6.6166 6.03936 6.60022L5.8627 6.47394L5.68604 6.60022C5.66315 6.61657 5.63267 6.59442 5.64111 6.56759L5.70664 6.36056L5.53195 6.23154C5.50934 6.2148 5.52098 6.17898 5.54911 6.17873L5.76626 6.17708L5.83496 5.97106C5.84378 5.94438 5.88154 5.94438 5.89044 5.97106Z" fill="#F5F5F5"/>
<path d="M5.89044 7.04888L5.95913 7.2549L6.17629 7.25655C6.20441 7.2568 6.21605 7.29266 6.19345 7.30935L6.01876 7.43838L6.08429 7.64541C6.09279 7.6722 6.06224 7.69442 6.03936 7.67804L5.8627 7.55176L5.68604 7.67804C5.66315 7.69439 5.63267 7.6722 5.64111 7.64541L5.70664 7.43838L5.53195 7.30935C5.50934 7.29269 5.52098 7.2568 5.54911 7.25655L5.76626 7.2549L5.83496 7.04888C5.84378 7.0222 5.88154 7.0222 5.89044 7.04888Z" fill="#F5F5F5"/>
<path d="M5.89044 8.12652L5.95913 8.33254L6.17629 8.33419C6.20441 8.33444 6.21605 8.37026 6.19345 8.387L6.01876 8.51602L6.08429 8.72305C6.09279 8.74984 6.06224 8.77206 6.03936 8.75568L5.8627 8.6294L5.68604 8.75568C5.66315 8.77203 5.63267 8.74984 5.64111 8.72305L5.70664 8.51602L5.53195 8.387C5.50934 8.37026 5.52098 8.33444 5.54911 8.33419L5.76626 8.33254L5.83496 8.12652C5.84378 8.09987 5.88154 8.09987 5.89044 8.12652Z" fill="#F5F5F5"/>
<path d="M6.72686 4.34408L6.79556 4.5501L7.01272 4.55175C7.04084 4.552 7.05248 4.58786 7.02987 4.60456L6.85518 4.73358L6.92071 4.94062C6.92922 4.96741 6.89867 4.98963 6.87578 4.97324L6.69912 4.84696L6.52247 4.97324C6.49958 4.98959 6.4691 4.96741 6.47754 4.94062L6.54307 4.73358L6.36838 4.60456C6.34577 4.58782 6.35741 4.552 6.38553 4.55175L6.60269 4.5501L6.67139 4.34408C6.68025 4.31743 6.71797 4.31743 6.72686 4.34408Z" fill="#F5F5F5"/>
<path d="M6.72686 5.42175L6.79556 5.62776L7.01272 5.62941C7.04084 5.62966 7.05248 5.66552 7.02987 5.68222L6.85518 5.81124L6.92071 6.01828C6.92922 6.04507 6.89867 6.06729 6.87578 6.0509L6.69912 5.92462L6.52247 6.0509C6.49958 6.06725 6.4691 6.0451 6.47754 6.01828L6.54307 5.81124L6.36838 5.68222C6.34577 5.66556 6.35741 5.62966 6.38553 5.62941L6.60269 5.62776L6.67139 5.42175C6.68025 5.39506 6.71797 5.39506 6.72686 5.42175Z" fill="#F5F5F5"/>
<path d="M6.72686 6.49957L6.79556 6.70558L7.01272 6.70723C7.04084 6.70748 7.05248 6.7433 7.02987 6.76004L6.85518 6.88906L6.92071 7.0961C6.92922 7.12289 6.89867 7.1451 6.87578 7.12872L6.69912 7.00244L6.52247 7.12872C6.49958 7.14507 6.4691 7.12289 6.47754 7.0961L6.54307 6.88906L6.36838 6.76004C6.34577 6.7433 6.35741 6.70748 6.38553 6.70723L6.60269 6.70558L6.67139 6.49957C6.68025 6.47288 6.71797 6.47288 6.72686 6.49957Z" fill="#F5F5F5"/>
<path d="M6.72686 7.57721L6.79556 7.78322L7.01272 7.78487C7.04084 7.78512 7.05248 7.82094 7.02987 7.83768L6.85518 7.9667L6.92071 8.17374C6.92922 8.20053 6.89867 8.22275 6.87578 8.20636L6.69912 8.08008L6.52247 8.20636C6.49958 8.22275 6.4691 8.20053 6.47754 8.17374L6.54307 7.9667L6.36838 7.83768C6.34577 7.82094 6.35741 7.78512 6.38553 7.78487L6.60269 7.78322L6.67139 7.57721C6.68025 7.55056 6.71797 7.55056 6.72686 7.57721Z" fill="#F5F5F5"/>
<path d="M7.56341 3.81573L7.63211 4.02174L7.84927 4.0234C7.87739 4.02364 7.88903 4.0595 7.86643 4.0762L7.69173 4.20519L7.75726 4.41222C7.76577 4.43901 7.73522 4.46123 7.71233 4.44485L7.53567 4.31857L7.35901 4.44485C7.33613 4.46123 7.30565 4.43901 7.31408 4.41222L7.37962 4.20519L7.20492 4.0762C7.18232 4.05947 7.19396 4.02361 7.22208 4.0234L7.43924 4.02174L7.50794 3.81573C7.5168 3.78904 7.55448 3.78904 7.56341 3.81573Z" fill="#F5F5F5"/>
<path d="M7.56341 4.8934L7.63211 5.09942L7.84927 5.10107C7.87739 5.10131 7.88903 5.13714 7.86643 5.15387L7.69173 5.2829L7.75726 5.48993C7.76577 5.51672 7.73522 5.53894 7.71233 5.52256L7.53567 5.39627L7.35901 5.52256C7.33613 5.5389 7.30565 5.51672 7.31408 5.48993L7.37962 5.2829L7.20492 5.15387C7.18232 5.13714 7.19396 5.10131 7.22208 5.10107L7.43924 5.09942L7.50794 4.8934C7.5168 4.86675 7.55448 4.86675 7.56341 4.8934Z" fill="#F5F5F5"/>
<path d="M7.56341 5.97106L7.63211 6.17708L7.84927 6.17873C7.87739 6.17898 7.88903 6.2148 7.86643 6.23154L7.69173 6.36056L7.75726 6.56759C7.76577 6.59438 7.73522 6.6166 7.71233 6.60022L7.53567 6.47394L7.35901 6.60022C7.33613 6.61657 7.30565 6.59442 7.31408 6.56759L7.37962 6.36056L7.20492 6.23154C7.18232 6.2148 7.19396 6.17898 7.22208 6.17873L7.43924 6.17708L7.50794 5.97106C7.5168 5.94438 7.55448 5.94438 7.56341 5.97106Z" fill="#F5F5F5"/>
<path d="M7.56341 7.04888L7.63211 7.2549L7.84927 7.25655C7.87739 7.2568 7.88903 7.29266 7.86643 7.30935L7.69173 7.43838L7.75726 7.64541C7.76577 7.6722 7.73522 7.69442 7.71233 7.67804L7.53567 7.55176L7.35901 7.67804C7.33613 7.69439 7.30565 7.6722 7.31408 7.64541L7.37962 7.43838L7.20492 7.30935C7.18232 7.29269 7.19396 7.2568 7.22208 7.25655L7.43924 7.2549L7.50794 7.04888C7.5168 7.0222 7.55448 7.0222 7.56341 7.04888Z" fill="#F5F5F5"/>
<path d="M7.56341 8.12652L7.63211 8.33254L7.84927 8.33419C7.87739 8.33444 7.88903 8.37026 7.86643 8.387L7.69173 8.51602L7.75726 8.72305C7.76577 8.74984 7.73522 8.77206 7.71233 8.75568L7.53567 8.6294L7.35901 8.75568C7.33613 8.77203 7.30565 8.74984 7.31408 8.72305L7.37962 8.51602L7.20492 8.387C7.18232 8.37026 7.19396 8.33444 7.22208 8.33419L7.43924 8.33254L7.50794 8.12652C7.5168 8.09987 7.55448 8.09987 7.56341 8.12652Z" fill="#F5F5F5"/>
</svg>
